<svg width="106" height="29" viewBox="0 0 106 29" fill="none" xmlns="http://www.w3.org/2000/svg">
<path d="M40.808 22.352C39.774 22.352 38.85 22.198 38.014 21.89C37.178 21.604 36.386 21.164 35.66 20.614L36.738 18.018C37.464 18.48 38.102 18.81 38.696 19.052C39.268 19.294 39.884 19.404 40.544 19.404C41.204 19.404 41.776 19.272 42.238 18.986C42.7 18.722 42.92 18.326 42.92 17.776C42.92 17.358 42.788 17.028 42.502 16.742C42.216 16.478 41.864 16.236 41.402 15.994C40.94 15.774 40.412 15.532 39.862 15.29C38.63 14.718 37.706 14.102 37.112 13.42C36.496 12.76 36.188 11.924 36.188 10.89C36.188 9.988 36.408 9.24 36.826 8.602C37.244 7.964 37.86 7.48 38.63 7.15C39.4 6.82 40.28 6.666 41.27 6.666C42.084 6.666 42.876 6.776 43.602 7.018C44.328 7.26 45.076 7.656 45.824 8.184L44.614 10.648C44.108 10.362 43.602 10.12 43.096 9.922C42.59 9.724 41.996 9.614 41.314 9.614C40.72 9.614 40.28 9.724 39.95 9.922C39.62 10.142 39.444 10.494 39.444 10.956C39.444 11.22 39.51 11.462 39.664 11.66C39.796 11.88 40.06 12.1 40.434 12.32C40.808 12.562 41.38 12.848 42.106 13.178C42.876 13.53 43.558 13.904 44.174 14.278C44.79 14.674 45.274 15.158 45.648 15.708C46 16.258 46.176 16.984 46.176 17.864C46.176 18.854 45.956 19.668 45.494 20.328C45.032 21.01 44.394 21.516 43.58 21.846C42.766 22.176 41.842 22.352 40.808 22.352ZM53.5924 22.154H52.0084C50.4464 22.154 49.2364 21.78 48.3564 21.01C47.4764 20.262 47.0364 19.162 47.0364 17.732V8.844H50.0504V11.77H53.8784L53.0424 14.41H50.0504V17.49C50.0504 17.996 50.2044 18.414 50.5124 18.766C50.7984 19.118 51.3924 19.294 52.2724 19.294H53.5924V22.154ZM57.5356 22H54.4996V11.77H57.2276L57.2496 13.42C57.5356 12.87 57.9756 12.452 58.5696 12.122C59.1636 11.814 59.8016 11.66 60.5276 11.66H60.9676V14.52H60.1096C59.3396 14.52 58.7236 14.784 58.2616 15.312C57.7776 15.862 57.5356 16.588 57.5356 17.49V22ZM66.1161 22.33C64.5321 22.33 63.3001 21.846 62.4421 20.856C61.5841 19.888 61.1441 18.59 61.1441 16.94C61.1441 15.268 61.5621 13.926 62.4201 12.936C63.2781 11.946 64.4441 11.44 65.9621 11.44C66.9741 11.44 67.8321 11.66 68.5141 12.122C69.1961 12.584 69.7241 13.2 70.0761 13.97C70.4281 14.762 70.6041 15.642 70.6041 16.632C70.6041 16.874 70.6041 17.072 70.5821 17.226C70.5601 17.402 70.5161 17.578 70.4501 17.776H64.0481C64.1581 18.546 64.4221 19.074 64.8621 19.404C65.2801 19.734 65.8081 19.91 66.4241 19.91C66.8421 19.91 67.2161 19.844 67.5461 19.69C67.8761 19.558 68.2501 19.294 68.6681 18.876L70.1861 20.702C69.5921 21.274 68.9761 21.692 68.3381 21.934C67.6781 22.198 66.9301 22.33 66.1161 22.33ZM66.0501 13.86C65.5441 13.86 65.1041 14.036 64.7521 14.366C64.3781 14.718 64.1581 15.202 64.0481 15.84H67.9641C67.8761 15.202 67.6561 14.718 67.3261 14.366C66.9741 14.036 66.5561 13.86 66.0501 13.86ZM74.6368 22.33C73.5148 22.33 72.6348 22 71.9748 21.34C71.2928 20.68 70.9628 19.8 70.9628 18.7C70.9628 17.952 71.1388 17.336 71.4688 16.852C71.7988 16.368 72.2168 15.994 72.7448 15.752C73.2728 15.51 73.8228 15.4 74.3948 15.4C74.9448 15.4 75.4288 15.466 75.8688 15.62C76.2868 15.774 76.6608 15.972 76.9908 16.214C77.0128 15.356 76.8148 14.762 76.3968 14.388C75.9788 14.036 75.4288 13.86 74.7468 13.86C73.9108 13.86 73.0528 14.08 72.1728 14.52L71.2268 12.518C71.7768 12.188 72.4368 11.924 73.1628 11.726C73.8888 11.528 74.6148 11.418 75.3848 11.418C76.2428 11.418 76.9908 11.572 77.6728 11.858C78.3328 12.166 78.8608 12.65 79.2568 13.31C79.6528 13.97 79.8508 14.828 79.8508 15.906V22H77.2108V21.252C76.8808 21.582 76.4848 21.846 76.0448 22.044C75.5828 22.242 75.1208 22.33 74.6368 22.33ZM75.4288 19.888C75.8688 19.888 76.2428 19.8 76.5728 19.602C76.9028 19.404 77.0568 19.118 77.0568 18.744C77.0568 18.37 76.9028 18.084 76.5728 17.908C76.2428 17.732 75.8468 17.644 75.4288 17.644C74.9008 17.644 74.5268 17.732 74.2848 17.908C74.0428 18.084 73.9328 18.37 73.9328 18.744C73.9328 19.514 74.4388 19.888 75.4288 19.888ZM84.565 22H81.551V11.77H84.301V12.628C84.587 12.254 84.983 11.946 85.467 11.748C85.951 11.55 86.435 11.44 86.897 11.44C87.953 11.44 88.811 11.814 89.471 12.584C90.175 11.814 91.099 11.44 92.265 11.44C93.541 11.44 94.531 11.814 95.213 12.562C95.895 13.332 96.225 14.388 96.225 15.774V22H93.211V15.906C93.211 15.334 93.123 14.894 92.947 14.608C92.771 14.322 92.419 14.19 91.913 14.19C91.297 14.19 90.901 14.388 90.703 14.784C90.505 15.202 90.417 15.752 90.417 16.434V22H87.403V15.906C87.403 15.29 87.271 14.85 87.007 14.586C86.721 14.322 86.391 14.19 85.973 14.19C85.489 14.19 85.137 14.366 84.917 14.696C84.675 15.026 84.565 15.62 84.565 16.434V22ZM101.178 22.33C100.408 22.33 99.7044 22.22 99.0444 21.978C98.3624 21.758 97.7684 21.472 97.2624 21.098L98.2524 18.832C98.8024 19.162 99.2864 19.382 99.7264 19.536C100.166 19.69 100.606 19.756 101.046 19.778C101.464 19.8 101.794 19.734 102.014 19.602C102.212 19.47 102.322 19.294 102.322 19.074C102.322 18.876 102.234 18.678 102.036 18.48C101.838 18.282 101.42 18.062 100.826 17.82C99.7924 17.402 99.0004 16.962 98.4504 16.478C97.9004 15.994 97.6144 15.356 97.5924 14.564C97.5704 13.574 97.9004 12.804 98.6044 12.254C99.3084 11.726 100.21 11.462 101.332 11.462C101.97 11.462 102.608 11.55 103.246 11.748C103.884 11.946 104.434 12.21 104.918 12.584L103.972 14.762C103.51 14.498 103.07 14.3 102.674 14.168C102.256 14.036 101.838 13.97 101.376 13.97C100.738 13.97 100.408 14.168 100.408 14.542C100.408 14.718 100.54 14.872 100.804 15.026C101.068 15.18 101.574 15.422 102.344 15.73C103.202 16.082 103.906 16.5 104.456 17.006C104.984 17.512 105.248 18.216 105.248 19.074C105.248 20.086 104.874 20.878 104.126 21.45C103.378 22.044 102.388 22.33 101.178 22.33Z" fill="white"/>
<g clip-path="url(#clip0_45_16)">
<path fill-rule="evenodd" clip-rule="evenodd" d="M11.5832 18.2499V10.1127C14.4719 11.472 16.7092 12.7851 19.3553 14.2008C17.1728 15.4111 14.4719 16.7691 11.5832 18.2499ZM27.682 6.06577C27.1837 5.40927 26.3344 4.89823 25.4302 4.72905C22.7726 4.22438 6.19293 4.22294 3.53677 4.72905C2.81171 4.86497 2.16606 5.19352 1.61143 5.70398C-0.725526 7.87303 0.00676596 19.505 0.570063 21.3892C0.806935 22.2047 1.11315 22.7929 1.49879 23.179C1.99565 23.6895 2.67593 24.0409 3.45732 24.1986C5.64551 24.6512 16.9187 24.9042 25.384 24.2665C26.1639 24.1306 26.8543 23.7678 27.3988 23.2357C29.5596 21.0753 29.4123 8.7901 27.682 6.06577Z" fill="#179F2E"/>
</g>
<defs>
<clipPath id="clip0_45_16">
<rect width="29" height="29" fill="white"/>
</clipPath>
</defs>
</svg>
